<?xml version="1.0" encoding="UTF-8" standalone="no"?>
<svg width="69px" height="73px" viewBox="0 0 69 73" version="1.1" xmlns="http://www.w3.org/2000/svg" xmlns:xlink="http://www.w3.org/1999/xlink" xmlns:sketch="http://www.bohemiancoding.com/sketch/ns">
    <!-- Generator: Sketch 3.3.2 (12043) - http://www.bohemiancoding.com/sketch -->
    <title>Logo</title>
    <desc>Created with Sketch.</desc>
    <defs></defs>
    <g id="Color" stroke="none" stroke-width="1" fill="none" fill-rule="evenodd" sketch:type="MSPage">
        <g id="color" sketch:type="MSLayerGroup">
            <g id="Logo" sketch:type="MSShapeGroup">
                <path d="M0,65.035 L64.116,65.035 L64.116,0.917 L0,0.917 L0,65.035 Z" id="Fill-43" fill="#DB342A"></path>
                <path d="M0,67.576 L64.116,67.576 L64.116,72.917 L0,72.917 L0,67.576 Z" id="Fill-44" fill="#212F57"></path>
                <path d="M29.108,27.862 L27.424,27.862 L27.367,27.649 C26.945,26.054 26.595,25.105 25.958,24.66 C25.316,24.209 24.279,23.981 22.647,23.981 C22.448,23.981 22.238,23.982 22.019,23.982 C21.861,23.982 21.699,23.983 21.531,23.983 L21.531,43.12 L24.389,43.392 L24.485,45.233 L14.475,45.233 L14.562,43.418 L14.774,43.374 C15.381,43.244 16.452,42.926 16.742,42.618 C16.78,42.578 16.817,42.539 16.853,42.502 C17.2,42.151 17.429,41.919 17.429,39.297 L17.429,23.983 C17.261,23.983 17.098,23.982 16.941,23.982 C16.721,23.982 16.512,23.981 16.312,23.981 C14.681,23.981 13.643,24.209 13.001,24.659 C12.364,25.105 12.015,26.054 11.593,27.649 L11.536,27.862 L9.851,27.862 L10.498,21.071 L28.463,21.071 L29.108,27.862" id="Fill-45" fill="#FFFFFF"></path>
                <path d="M52.734,22.765 L52.483,22.853 C51.811,23.092 51.272,23.303 50.944,23.665 C50.617,24.026 50.471,24.577 50.471,25.45 L50.471,45.233 L47.572,45.233 L47.49,45.099 L37.042,28.065 L37.042,43.128 L39.197,43.399 L39.293,45.233 L30.899,45.233 L31.028,43.44 L31.207,43.382 C31.862,43.164 32.994,42.72 33.239,42.459 C33.555,42.121 33.661,42.007 33.661,39.819 L33.661,26.582 C33.661,25.298 33.644,24.548 33.32,24.068 C32.991,23.583 32.26,23.256 30.941,22.789 L30.779,22.731 L30.755,22.554 C30.684,22.031 30.601,21.403 30.601,21.403 L30.556,21.071 L37.773,21.071 L47.177,36.562 L47.177,25.372 C47.177,24.569 47.051,24.071 46.756,23.706 C46.402,23.267 45.751,22.993 44.768,22.867 L44.561,22.84 L44.292,21.071 L52.271,21.071 L52.734,22.765" id="Fill-46" fill="#FFFFFF"></path>
                <path d="M0,65.035 L64.116,65.035 L64.116,67.576 L0,67.576 L0,65.035 Z" id="Fill-47" fill="#FFFFFF"></path>
                <path d="M68.229,73 L68.17,72.046 C68.164,71.92 68.164,71.765 68.158,71.592 L68.14,71.592 C68.098,71.736 68.05,71.926 68.003,72.076 L67.71,72.976 L67.376,72.976 L67.084,72.052 C67.054,71.926 67.007,71.736 66.971,71.592 L66.953,71.592 C66.953,71.742 66.947,71.897 66.941,72.046 L66.881,73 L66.571,73 L66.69,71.378 L67.174,71.378 L67.454,72.171 C67.49,72.296 67.52,72.416 67.561,72.583 L67.567,72.583 C67.609,72.433 67.645,72.296 67.681,72.177 L67.961,71.378 L68.426,71.378 L68.551,73 L68.229,73 L68.229,73 Z M66.476,71.378 L66.476,71.646 L65.957,71.646 L65.957,73 L65.635,73 L65.635,71.646 L65.116,71.646 L65.116,71.378 L66.476,71.378 L66.476,71.378 Z" id="Fill-49" fill="#212F57"></path>
            </g>
        </g>
    </g>
</svg>