<?xml version="1.0" encoding="UTF-8" standalone="no"?>
<svg width="210px" height="73px" viewBox="0 0 210 73" version="1.1" xmlns="http://www.w3.org/2000/svg" xmlns:xlink="http://www.w3.org/1999/xlink" xmlns:sketch="http://www.bohemiancoding.com/sketch/ns">
    <!-- Generator: Sketch 3.3.3 (12072) - http://www.bohemiancoding.com/sketch -->
    <title>color-white</title>
    <desc>Created with Sketch.</desc>
    <defs></defs>
    <g id="Color-White" stroke="none" stroke-width="1" fill="none" fill-rule="evenodd" sketch:type="MSPage">
        <g id="color-white" sketch:type="MSLayerGroup">
            <g id="white-letters" transform="translate(72.000000, 16.000000)" fill="#FFFFFF" sketch:type="MSShapeGroup">
                <g id="Conservation" transform="translate(0.000000, 41.000000)">
                    <path d="M5.831,16 C4.027,16 2.707,15.406 1.629,14.35 C0.067,12.788 0.045,11.027 0.045,8.035 C0.045,5.043 0.067,3.282 1.629,1.72 C2.707,0.664 4.027,0.07 5.831,0.07 C8.758,0.07 11.002,1.742 11.574,5.021 L8.45,5.021 C8.142,3.744 7.35,2.798 5.831,2.798 C4.996,2.798 4.313,3.106 3.873,3.612 C3.301,4.272 3.103,5.043 3.103,8.035 C3.103,11.027 3.301,11.798 3.873,12.458 C4.313,12.964 4.996,13.272 5.831,13.272 C7.35,13.272 8.164,12.325 8.472,11.05 L11.574,11.05 C11.002,14.328 8.736,16 5.831,16" id="Fill-26"></path>
                    <path d="M19.207,7.353 C18.877,7.022 18.437,6.847 17.865,6.847 C17.315,6.847 16.875,7.022 16.545,7.353 C15.951,7.925 15.885,8.959 15.885,10.125 C15.885,11.313 15.951,12.348 16.545,12.92 C16.875,13.25 17.315,13.426 17.865,13.426 C18.437,13.426 18.877,13.25 19.207,12.92 C19.801,12.348 19.868,11.313 19.868,10.125 C19.868,8.959 19.801,7.925 19.207,7.353 L19.207,7.353 Z M21.43,14.592 C20.704,15.34 19.56,16 17.865,16 C16.171,16 15.049,15.34 14.323,14.592 C13.289,13.492 13.024,12.193 13.024,10.125 C13.024,8.057 13.289,6.781 14.323,5.681 C15.049,4.933 16.171,4.272 17.865,4.272 C19.56,4.272 20.704,4.91 21.43,5.681 C22.464,6.781 22.728,8.057 22.728,10.125 C22.728,12.193 22.486,13.514 21.43,14.592 L21.43,14.592 Z" id="Fill-27"></path>
                    <path d="M31.356,15.868 L31.356,8.938 C31.356,7.375 30.366,6.847 29.463,6.847 C28.562,6.847 27.549,7.375 27.549,8.938 L27.549,15.868 L24.689,15.868 L24.689,4.404 L27.483,4.404 L27.483,5.461 C28.231,4.669 29.288,4.272 30.344,4.272 C31.488,4.272 32.412,4.647 33.05,5.284 C33.974,6.209 34.216,7.287 34.216,8.541 L34.216,15.868 L31.356,15.868" id="Fill-28"></path>
                    <path d="M40.353,16 C38.549,16 36.943,15.802 35.468,14.35 L37.338,12.48 C38.262,13.426 39.517,13.558 40.397,13.558 C41.387,13.558 42.421,13.228 42.421,12.37 C42.421,11.798 42.135,11.401 41.211,11.313 L39.363,11.138 C37.338,10.939 36.063,10.037 36.063,7.925 C36.063,5.526 38.153,4.272 40.485,4.272 C42.29,4.272 43.764,4.603 44.864,5.614 L43.104,7.397 C42.444,6.803 41.454,6.627 40.441,6.627 C39.297,6.627 38.813,7.155 38.813,7.727 C38.813,8.299 39.143,8.629 40,8.717 L41.805,8.894 C44.072,9.113 45.215,10.302 45.215,12.26 C45.215,14.79 43.059,16 40.353,16" id="Fill-29"></path>
                    <path d="M53.246,7.837 C52.938,7.155 52.299,6.648 51.331,6.648 C50.363,6.648 49.725,7.155 49.417,7.837 C49.219,8.255 49.174,8.563 49.153,9.069 L53.509,9.069 C53.487,8.563 53.444,8.255 53.246,7.837 L53.246,7.837 Z M49.153,11.027 C49.153,12.523 50.033,13.58 51.661,13.58 C52.916,13.58 53.532,13.206 54.257,12.502 L55.996,14.196 C54.83,15.384 53.708,16 51.639,16 C48.932,16 46.336,14.768 46.336,10.125 C46.336,6.385 48.361,4.272 51.331,4.272 C54.522,4.272 56.326,6.561 56.326,9.817 L56.326,11.027 L49.153,11.027 L49.153,11.027 Z" id="Fill-30"></path>
                    <path d="M64.487,7.529 C64.047,7.089 63.672,6.847 62.969,6.847 C62.088,6.847 61.121,7.507 61.121,8.959 L61.121,15.868 L58.26,15.868 L58.26,4.404 L61.054,4.404 L61.054,5.505 C61.604,4.845 62.705,4.272 63.937,4.272 C65.059,4.272 65.851,4.559 66.643,5.351 L64.487,7.529" id="Fill-32"></path>
                    <path d="M73.624,15.868 L71.379,15.868 L67.155,4.404 L70.169,4.404 L72.501,11.489 L74.812,4.404 L77.827,4.404 L73.624,15.868" id="Fill-33"></path>
                    <path d="M84.822,11.027 L82.643,11.027 C81.5,11.027 80.95,11.489 80.95,12.348 C80.95,13.14 81.5,13.646 82.688,13.646 C83.391,13.646 83.897,13.558 84.381,13.096 C84.711,12.81 84.822,12.37 84.822,11.644 L84.822,11.027 L84.822,11.027 Z M84.887,15.868 L84.887,14.878 C84.118,15.648 83.391,15.978 82.071,15.978 C80.774,15.978 79.805,15.626 79.145,14.966 C78.529,14.328 78.199,13.403 78.199,12.392 C78.199,10.565 79.454,9.069 82.16,9.069 L84.822,9.069 L84.822,8.497 C84.822,7.243 84.206,6.692 82.688,6.692 C81.653,6.692 81.103,6.979 80.487,7.683 L78.683,5.9 C79.805,4.669 80.883,4.272 82.797,4.272 C86.032,4.272 87.682,5.637 87.682,8.321 L87.682,15.868 L84.887,15.868 L84.887,15.868 Z" id="Fill-35"></path>
                    <path d="M93.635,15.868 C91.302,15.868 90.312,14.218 90.312,12.59 L90.312,6.913 L89.102,6.913 L89.102,4.734 L90.312,4.734 L90.312,1.346 L93.172,1.346 L93.172,4.734 L95.197,4.734 L95.197,6.913 L93.172,6.913 L93.172,12.414 C93.172,13.074 93.481,13.448 94.163,13.448 L95.197,13.448 L95.197,15.868 L93.635,15.868" id="Fill-37"></path>
                    <path d="M120.079,15.868 L120.079,8.938 C120.079,7.375 119.088,6.847 118.186,6.847 C117.284,6.847 116.272,7.375 116.272,8.938 L116.272,15.868 L113.412,15.868 L113.412,4.404 L116.206,4.404 L116.206,5.461 C116.954,4.669 118.01,4.272 119.066,4.272 C120.21,4.272 121.134,4.647 121.773,5.284 C122.697,6.209 122.939,7.287 122.939,8.541 L122.939,15.868 L120.079,15.868" id="Fill-42"></path>
                    <path d="M97,4.734 L99.86,4.734 L99.86,15.868 L97,15.868 L97,4.734 Z M96.956,0.114 L99.882,0.114 L99.882,2.446 L96.956,2.446 L96.956,0.114 Z" id="Fill-38"></path>
                    <path d="M107.957,7.353 C107.626,7.022 107.186,6.847 106.614,6.847 C106.064,6.847 105.624,7.022 105.293,7.353 C104.7,7.925 104.633,8.959 104.633,10.125 C104.633,11.313 104.7,12.348 105.293,12.92 C105.624,13.25 106.064,13.426 106.614,13.426 C107.186,13.426 107.626,13.25 107.957,12.92 C108.55,12.348 108.617,11.313 108.617,10.125 C108.617,8.959 108.55,7.925 107.957,7.353 L107.957,7.353 Z M110.179,14.592 C109.453,15.34 108.308,16 106.614,16 C104.92,16 103.797,15.34 103.072,14.592 C102.038,13.492 101.774,12.193 101.774,10.125 C101.774,8.057 102.038,6.781 103.072,5.681 C103.797,4.933 104.92,4.272 106.614,4.272 C108.308,4.272 109.453,4.91 110.179,5.681 C111.213,6.781 111.477,8.057 111.477,10.125 C111.477,12.193 111.235,13.514 110.179,14.592 L110.179,14.592 Z" id="Fill-40"></path>
                </g>
                <path d="M129.509,21.509 C128.651,21.509 128.211,22.06 128.211,22.786 C128.211,23.357 128.695,23.908 129.246,24.546 L129.906,24.105 C130.412,23.753 130.807,23.335 130.807,22.786 C130.807,22.06 130.324,21.509 129.509,21.509 L129.509,21.509 Z M128.431,27.803 C127.485,28.463 126.847,29.079 126.847,30.2 C126.847,31.499 127.903,32.4 129.223,32.4 C130.147,32.4 130.83,32.115 131.555,31.477 L128.431,27.803 L128.431,27.803 Z M134.438,34.865 L133.293,33.501 C132.48,34.161 131.423,34.997 129.246,34.997 C125.791,34.997 124.075,33.193 124.075,30.244 C124.075,28.242 125.527,26.944 126.891,26.042 C126.252,25.316 125.329,24.216 125.329,22.72 C125.329,20.585 126.891,19.067 129.509,19.067 C131.974,19.067 133.514,20.629 133.514,22.764 C133.514,23.974 132.875,24.788 131.908,25.492 L130.786,26.307 L133.426,29.431 C133.932,28.749 134.174,27.803 134.218,26.681 L136.924,26.681 C136.814,28.704 136.352,30.311 135.252,31.543 L138.069,34.865 L134.438,34.865 L134.438,34.865 Z" id="and"></path>
                <g id="Environment" transform="translate(0.000000, 19.000000)">
                    <path d="M0.573,15.865 L0.573,0.199 L10.892,0.199 L10.892,2.927 L3.631,2.927 L3.631,6.603 L9.814,6.603 L9.814,9.33 L3.631,9.33 L3.631,13.137 L10.892,13.137 L10.892,15.865 L0.573,15.865" id="Fill-13"></path>
                    <path d="M19.45,15.865 L19.45,8.935 C19.45,7.372 18.46,6.844 17.557,6.844 C16.655,6.844 15.643,7.372 15.643,8.935 L15.643,15.865 L12.783,15.865 L12.783,4.401 L15.577,4.401 L15.577,5.458 C16.325,4.666 17.381,4.27 18.437,4.27 C19.581,4.27 20.505,4.644 21.144,5.282 C22.068,6.206 22.31,7.284 22.31,8.538 L22.31,15.865 L19.45,15.865" id="Fill-14"></path>
                    <path d="M29.462,15.865 L27.217,15.865 L22.993,4.401 L26.007,4.401 L28.339,11.486 L30.65,4.401 L33.665,4.401 L29.462,15.865" id="Fill-15"></path>
                    <path d="M34.873,4.731 L37.733,4.731 L37.733,15.865 L34.873,15.865 L34.873,4.731 Z M34.829,0.111 L37.755,0.111 L37.755,2.444 L34.829,2.444 L34.829,0.111 Z" id="Fill-16"></path>
                    <path d="M46.33,7.526 C45.889,7.086 45.516,6.844 44.811,6.844 C43.931,6.844 42.963,7.504 42.963,8.956 L42.963,15.865 L40.103,15.865 L40.103,4.401 L42.897,4.401 L42.897,5.502 C43.448,4.842 44.547,4.27 45.78,4.27 C46.902,4.27 47.694,4.556 48.486,5.348 L46.33,7.526" id="Fill-17"></path>
                    <path d="M54.711,7.351 C54.381,7.021 53.942,6.844 53.37,6.844 C52.819,6.844 52.379,7.021 52.049,7.351 C51.455,7.922 51.389,8.956 51.389,10.123 C51.389,11.311 51.455,12.345 52.049,12.917 C52.379,13.247 52.819,13.423 53.37,13.423 C53.942,13.423 54.381,13.247 54.711,12.917 C55.305,12.345 55.372,11.311 55.372,10.123 C55.372,8.956 55.305,7.922 54.711,7.351 L54.711,7.351 Z M56.934,14.589 C56.208,15.337 55.063,15.997 53.37,15.997 C51.674,15.997 50.553,15.337 49.827,14.589 C48.792,13.489 48.528,12.19 48.528,10.123 C48.528,8.055 48.792,6.778 49.827,5.678 C50.553,4.93 51.674,4.27 53.37,4.27 C55.063,4.27 56.208,4.908 56.934,5.678 C57.967,6.778 58.232,8.055 58.232,10.123 C58.232,12.19 57.99,13.511 56.934,14.589 L56.934,14.589 Z" id="Fill-18"></path>
                    <path d="M66.864,15.865 L66.864,8.935 C66.864,7.372 65.874,6.844 64.971,6.844 C64.069,6.844 63.057,7.372 63.057,8.935 L63.057,15.865 L60.197,15.865 L60.197,4.401 L62.991,4.401 L62.991,5.458 C63.739,4.666 64.795,4.27 65.852,4.27 C66.996,4.27 67.919,4.644 68.557,5.282 C69.482,6.206 69.724,7.284 69.724,8.538 L69.724,15.865 L66.864,15.865" id="Fill-19"></path>
                    <path d="M85.388,15.865 L85.388,8.935 C85.388,7.372 84.399,6.844 83.497,6.844 C82.616,6.844 81.583,7.372 81.583,8.868 L81.583,15.865 L78.721,15.865 L78.721,8.935 C78.721,7.372 77.731,6.844 76.829,6.844 C75.927,6.844 74.915,7.372 74.915,8.935 L74.915,15.865 L72.055,15.865 L72.055,4.401 L74.849,4.401 L74.849,5.458 C75.597,4.688 76.653,4.27 77.709,4.27 C78.985,4.27 80.02,4.731 80.746,5.722 C81.713,4.709 82.749,4.27 84.178,4.27 C85.323,4.27 86.356,4.644 86.995,5.282 C87.918,6.206 88.249,7.284 88.249,8.538 L88.249,15.865 L85.388,15.865" id="Fill-20"></path>
                    <path d="M96.916,7.834 C96.608,7.152 95.969,6.647 95,6.647 C94.033,6.647 93.395,7.152 93.086,7.834 C92.889,8.252 92.844,8.561 92.823,9.066 L97.179,9.066 C97.157,8.561 97.114,8.252 96.916,7.834 L96.916,7.834 Z M92.823,11.024 C92.823,12.521 93.703,13.577 95.331,13.577 C96.585,13.577 97.202,13.203 97.927,12.499 L99.666,14.193 C98.5,15.381 97.377,15.997 95.309,15.997 C92.602,15.997 90.006,14.765 90.006,10.123 C90.006,6.382 92.031,4.27 95,4.27 C98.192,4.27 99.996,6.559 99.996,9.814 L99.996,11.024 L92.823,11.024 L92.823,11.024 Z" id="Fill-21"></path>
                    <path d="M108.553,15.865 L108.553,8.935 C108.553,7.372 107.563,6.844 106.661,6.844 C105.758,6.844 104.747,7.372 104.747,8.935 L104.747,15.865 L101.886,15.865 L101.886,4.401 L104.68,4.401 L104.68,5.458 C105.428,4.666 106.485,4.27 107.542,4.27 C108.685,4.27 109.609,4.644 110.248,5.282 C111.171,6.206 111.414,7.284 111.414,8.538 L111.414,15.865 L108.553,15.865" id="Fill-22"></path>
                    <path d="M117.331,15.865 C114.999,15.865 114.008,14.215 114.008,12.587 L114.008,6.91 L112.798,6.91 L112.798,4.731 L114.008,4.731 L114.008,1.343 L116.869,1.343 L116.869,4.731 L118.893,4.731 L118.893,6.91 L116.869,6.91 L116.869,12.411 C116.869,13.071 117.177,13.445 117.859,13.445 L118.893,13.445 L118.893,15.865 L117.331,15.865" id="Fill-23"></path>
                </g>
                <g id="of" transform="translate(88.000000, 0.000000)">
                    <path d="M5.807,6.111 C5.399,5.703 4.873,5.499 4.278,5.499 C3.682,5.499 3.172,5.703 2.764,6.111 C2.153,6.723 2.084,7.743 2.084,8.694 C2.084,9.629 2.135,10.649 2.764,11.278 C3.172,11.686 3.682,11.89 4.278,11.89 C4.873,11.89 5.399,11.686 5.807,11.278 C6.419,10.649 6.47,9.629 6.47,8.694 C6.47,7.743 6.419,6.723 5.807,6.111 L5.807,6.111 Z M6.674,12.026 C6.096,12.621 5.297,12.978 4.278,12.978 C3.258,12.978 2.458,12.621 1.881,12.026 C1.031,11.159 0.861,9.986 0.861,8.694 C0.861,7.402 1.031,6.213 1.881,5.363 C2.458,4.768 3.258,4.411 4.278,4.411 C5.297,4.411 6.096,4.768 6.674,5.363 C7.524,6.213 7.694,7.402 7.694,8.694 C7.694,9.986 7.524,11.159 6.674,12.026 L6.674,12.026 Z" id="Fill-11"></path>
                    <path d="M11.078,5.448 L11.078,12.876 L9.854,12.876 L9.854,5.448 L8.783,5.448 L8.783,4.513 L9.854,4.513 L9.854,2.983 C9.854,1.742 10.55,0.739 11.979,0.739 L12.862,0.739 L12.862,1.793 L12.2,1.793 C11.417,1.793 11.078,2.252 11.078,3.017 L11.078,4.513 L12.862,4.513 L12.862,5.448 L11.078,5.448" id="Fill-12"></path>
                </g>
                <g id="Department">
                    <path d="M6.804,2.813 C6.192,2.133 5.342,1.929 4.424,1.929 L1.789,1.929 L1.789,11.72 L4.424,11.72 C5.342,11.72 6.192,11.516 6.804,10.836 C7.585,10.003 7.602,8.507 7.602,6.825 C7.602,5.142 7.585,3.646 6.804,2.813 L6.804,2.813 Z M7.824,11.601 C7.008,12.485 6.005,12.876 4.645,12.876 L0.498,12.876 L0.498,0.773 L4.645,0.773 C6.005,0.773 7.008,1.164 7.824,2.048 C8.895,3.204 8.895,4.972 8.895,6.825 C8.895,8.677 8.895,10.445 7.824,11.601 L7.824,11.601 Z" id="Fill-1"></path>
                    <path d="M16.137,6.706 C15.78,5.94 15.082,5.448 14.182,5.448 C13.281,5.448 12.584,5.94 12.227,6.706 C12.023,7.147 12.006,7.419 11.972,8.1 L16.409,8.1 C16.357,7.419 16.34,7.147 16.137,6.706 L16.137,6.706 Z M11.972,9.018 C11.972,10.853 12.822,11.907 14.437,11.907 C15.406,11.907 15.967,11.618 16.629,10.955 L17.462,11.686 C16.613,12.536 15.813,12.978 14.403,12.978 C12.176,12.978 10.748,11.652 10.748,8.694 C10.748,5.975 12.057,4.411 14.182,4.411 C16.357,4.411 17.615,5.958 17.615,8.474 L17.615,9.018 L11.972,9.018 L11.972,9.018 Z" id="Fill-2"></path>
                    <path d="M23.039,5.499 C21.203,5.499 20.931,7.063 20.931,8.694 C20.931,10.326 21.203,11.89 23.039,11.89 C24.857,11.89 25.129,10.326 25.129,8.694 C25.129,7.063 24.857,5.499 23.039,5.499 L23.039,5.499 Z M25.334,12.247 C24.892,12.689 24.161,12.978 23.294,12.978 C22.376,12.978 21.628,12.757 20.931,11.89 L20.931,16.616 L19.707,16.616 L19.707,4.513 L20.931,4.513 L20.931,5.499 C21.628,4.632 22.359,4.411 23.294,4.411 C24.161,4.411 24.892,4.7 25.334,5.142 C26.166,5.975 26.354,7.352 26.354,8.694 C26.354,10.037 26.166,11.397 25.334,12.247 L25.334,12.247 Z" id="Fill-3"></path>
                    <path d="M33.205,9.018 L30.875,9.018 C29.618,9.018 28.989,9.51 28.989,10.496 C28.989,11.465 29.584,11.924 30.927,11.924 C31.624,11.924 32.236,11.856 32.78,11.363 C33.068,11.091 33.205,10.615 33.205,9.918 L33.205,9.018 L33.205,9.018 Z M33.205,12.876 L33.205,12.077 C32.542,12.74 31.913,12.978 30.791,12.978 C29.635,12.978 29.006,12.774 28.428,12.213 C28.003,11.805 27.799,11.176 27.799,10.513 C27.799,9.034 28.836,8.1 30.706,8.1 L33.205,8.1 L33.205,7.301 C33.205,6.094 32.609,5.465 31.063,5.465 C30.009,5.465 29.465,5.737 28.955,6.434 L28.122,5.669 C28.853,4.7 29.703,4.411 31.08,4.411 C33.34,4.411 34.428,5.397 34.428,7.199 L34.428,12.876 L33.205,12.876 L33.205,12.876 Z" id="Fill-4"></path>
                    <path d="M41.319,6.111 C40.86,5.652 40.519,5.499 39.874,5.499 C38.649,5.499 37.868,6.468 37.868,7.743 L37.868,12.876 L36.643,12.876 L36.643,4.513 L37.868,4.513 L37.868,5.533 C38.327,4.836 39.245,4.411 40.213,4.411 C41.012,4.411 41.624,4.598 42.219,5.193 L41.319,6.111" id="Fill-5"></path>
                    <path d="M46.316,12.876 C44.888,12.876 44.174,11.873 44.174,10.632 L44.174,5.448 L43.121,5.448 L43.121,4.513 L44.174,4.513 L44.174,1.946 L45.398,1.946 L45.398,4.513 L47.183,4.513 L47.183,5.448 L45.398,5.448 L45.398,10.598 C45.398,11.363 45.754,11.822 46.538,11.822 L47.183,11.822 L47.183,12.876 L46.316,12.876" id="Fill-6"></path>
                    <path d="M59.668,12.876 L59.668,7.726 C59.668,6.247 58.869,5.499 57.611,5.499 C56.387,5.499 55.52,6.264 55.52,7.589 L55.52,12.876 L54.296,12.876 L54.296,7.726 C54.296,6.247 53.498,5.499 52.24,5.499 C50.981,5.499 50.149,6.264 50.149,7.726 L50.149,12.876 L48.924,12.876 L48.924,4.513 L50.149,4.513 L50.149,5.431 C50.744,4.751 51.577,4.411 52.512,4.411 C53.667,4.411 54.569,4.887 55.079,5.805 C55.724,4.887 56.659,4.411 57.833,4.411 C58.733,4.411 59.481,4.7 59.991,5.193 C60.585,5.771 60.891,6.553 60.891,7.522 L60.891,12.876 L59.668,12.876" id="Fill-7"></path>
                    <path d="M68.219,6.706 C67.862,5.94 67.165,5.448 66.264,5.448 C65.364,5.448 64.667,5.94 64.309,6.706 C64.106,7.147 64.088,7.419 64.055,8.1 L68.491,8.1 C68.44,7.419 68.423,7.147 68.219,6.706 L68.219,6.706 Z M64.055,9.018 C64.055,10.853 64.905,11.907 66.519,11.907 C67.489,11.907 68.049,11.618 68.711,10.955 L69.545,11.686 C68.695,12.536 67.896,12.978 66.485,12.978 C64.258,12.978 62.831,11.652 62.831,8.694 C62.831,5.975 64.139,4.411 66.264,4.411 C68.44,4.411 69.698,5.958 69.698,8.474 L69.698,9.018 L64.055,9.018 L64.055,9.018 Z" id="Fill-8"></path>
                    <path d="M77.014,12.876 L77.014,7.726 C77.014,6.247 76.215,5.499 74.958,5.499 C73.7,5.499 72.883,6.264 72.883,7.726 L72.883,12.876 L71.659,12.876 L71.659,4.513 L72.883,4.513 L72.883,5.431 C73.478,4.751 74.293,4.411 75.229,4.411 C76.129,4.411 76.861,4.683 77.371,5.193 C77.965,5.771 78.238,6.553 78.238,7.522 L78.238,12.876 L77.014,12.876" id="Fill-9"></path>
                    <path d="M82.777,12.876 C81.349,12.876 80.635,11.873 80.635,10.632 L80.635,5.448 L79.582,5.448 L79.582,4.513 L80.635,4.513 L80.635,1.946 L81.859,1.946 L81.859,4.513 L83.644,4.513 L83.644,5.448 L81.859,5.448 L81.859,10.598 C81.859,11.363 82.215,11.822 82.999,11.822 L83.644,11.822 L83.644,12.876 L82.777,12.876" id="Fill-10"></path>
                </g>
            </g>
            <g id="color-logo" sketch:type="MSShapeGroup">
                <path d="M0,65.035 L64.116,65.035 L64.116,0.917 L0,0.917 L0,65.035 Z" id="Fill-43" fill="#DB342A"></path>
                <path d="M0,67.576 L64.116,67.576 L64.116,72.917 L0,72.917 L0,67.576 Z" id="Fill-44" fill="#212F57"></path>
                <path d="M29.108,27.862 L27.424,27.862 L27.367,27.649 C26.945,26.054 26.595,25.105 25.958,24.66 C25.316,24.209 24.279,23.981 22.647,23.981 C22.448,23.981 22.238,23.982 22.019,23.982 C21.861,23.982 21.699,23.983 21.531,23.983 L21.531,43.12 L24.389,43.392 L24.485,45.233 L14.475,45.233 L14.562,43.418 L14.774,43.374 C15.381,43.244 16.452,42.926 16.742,42.618 C16.78,42.578 16.817,42.539 16.853,42.502 C17.2,42.151 17.429,41.919 17.429,39.297 L17.429,23.983 C17.261,23.983 17.098,23.982 16.941,23.982 C16.721,23.982 16.512,23.981 16.312,23.981 C14.681,23.981 13.643,24.209 13.001,24.659 C12.364,25.105 12.015,26.054 11.593,27.649 L11.536,27.862 L9.851,27.862 L10.498,21.071 L28.463,21.071 L29.108,27.862" id="Fill-45" fill="#FFFFFF"></path>
                <path d="M52.734,22.765 L52.483,22.853 C51.811,23.092 51.272,23.303 50.944,23.665 C50.617,24.026 50.471,24.577 50.471,25.45 L50.471,45.233 L47.572,45.233 L47.49,45.099 L37.042,28.065 L37.042,43.128 L39.197,43.399 L39.293,45.233 L30.899,45.233 L31.028,43.44 L31.207,43.382 C31.862,43.164 32.994,42.72 33.239,42.459 C33.555,42.121 33.661,42.007 33.661,39.819 L33.661,26.582 C33.661,25.298 33.644,24.548 33.32,24.068 C32.991,23.583 32.26,23.256 30.941,22.789 L30.779,22.731 L30.755,22.554 C30.684,22.031 30.601,21.403 30.601,21.403 L30.556,21.071 L37.773,21.071 L47.177,36.562 L47.177,25.372 C47.177,24.569 47.051,24.071 46.756,23.706 C46.402,23.267 45.751,22.993 44.768,22.867 L44.561,22.84 L44.292,21.071 L52.271,21.071 L52.734,22.765" id="Fill-46" fill="#FFFFFF"></path>
                <path d="M0,65.035 L64.116,65.035 L64.116,67.576 L0,67.576 L0,65.035 Z" id="Fill-47" fill="#FFFFFF"></path>
                <path d="M68.229,73 L68.17,72.046 C68.164,71.92 68.164,71.765 68.158,71.592 L68.14,71.592 C68.098,71.736 68.05,71.926 68.003,72.076 L67.71,72.976 L67.376,72.976 L67.084,72.052 C67.054,71.926 67.007,71.736 66.971,71.592 L66.953,71.592 C66.953,71.742 66.947,71.897 66.941,72.046 L66.881,73 L66.571,73 L66.69,71.378 L67.174,71.378 L67.454,72.171 C67.49,72.296 67.52,72.416 67.561,72.583 L67.567,72.583 C67.609,72.433 67.645,72.296 67.681,72.177 L67.961,71.378 L68.426,71.378 L68.551,73 L68.229,73 L68.229,73 Z M66.476,71.378 L66.476,71.646 L65.957,71.646 L65.957,73 L65.635,73 L65.635,71.646 L65.116,71.646 L65.116,71.378 L66.476,71.378 L66.476,71.378 Z" id="Fill-49" fill="#212F57"></path>
            </g>
        </g>
    </g>
</svg>