<?xml version="1.0" encoding="UTF-8" standalone="no"?>
<svg height="90px" class="logo" viewBox="0 0 74 28" version="1.1" xmlns="http://www.w3.org/2000/svg" xmlns:xlink="http://www.w3.org/1999/xlink" xmlns:sketch="http://www.bohemiancoding.com/sketch/ns">
    <!-- Generator: Sketch 3.3.3 (12072) - http://www.bohemiancoding.com/sketch -->
    <title>tsp-logo</title>
    <desc>Created with Sketch.</desc>
    <defs>
        <path id="path-1" d="M0.06,0.881 L73.705,0.881 L73.705,28 L0.06,28"></path>
    </defs>
    <g id="Page-1" stroke="none" stroke-width="1" fill="none" fill-rule="evenodd" sketch:type="MSPage">
        <g id="tsp-logo" sketch:type="MSLayerGroup">
            <path d="M29.964,9.907 L29.964,10.19 L30.855,10.19 L30.855,12.606 L31.14,12.606 L31.14,10.19 L32.037,10.19 L32.037,9.907 L29.964,9.907" id="Fill-1" fill="#0B0B0A" sketch:type="MSShapeGroup"></path>
            <path d="M35.53,12.33 L35.53,11.396 L36.705,11.396 L36.705,11.121 L35.53,11.121 L35.53,10.19 L36.995,10.19 L36.995,9.907 L35.242,9.907 L35.242,12.61 L37.018,12.61 L37.018,12.33 L35.53,12.33" id="Fill-2" fill="#0B0B0A" sketch:type="MSShapeGroup"></path>
            <path d="M42.354,9.914 L42.354,11.328 C42.354,11.713 42.366,12.076 42.362,12.076 L42.36,12.076 C42.354,12.076 42.144,11.794 41.925,11.522 L40.641,9.914 L40.372,9.914 L40.372,12.606 L40.66,12.606 L40.66,11.194 C40.66,10.764 40.648,10.428 40.653,10.428 L40.655,10.428 C40.66,10.428 40.843,10.675 41.09,10.993 L42.374,12.606 L42.642,12.606 L42.642,9.914 L42.354,9.914" id="Fill-3" fill="#0B0B0A" sketch:type="MSShapeGroup"></path>
            <path d="M47.985,9.914 L47.985,11.328 C47.985,11.713 47.994,12.076 47.993,12.076 L47.987,12.076 C47.985,12.076 47.775,11.794 47.555,11.522 L46.272,9.914 L46.003,9.914 L46.003,12.606 L46.288,12.606 L46.288,11.194 C46.288,10.764 46.279,10.428 46.282,10.428 L46.286,10.428 C46.288,10.428 46.47,10.675 46.718,10.993 L48.001,12.606 L48.271,12.606 L48.271,9.914 L47.985,9.914" id="Fill-4" fill="#0B0B0A" sketch:type="MSShapeGroup"></path>
            <path d="M51.918,12.33 L51.918,11.396 L53.097,11.396 L53.097,11.121 L51.918,11.121 L51.918,10.19 L53.387,10.19 L53.387,9.907 L51.633,9.907 L51.633,12.61 L53.408,12.61 L53.408,12.33 L51.918,12.33" id="Fill-5" fill="#0B0B0A" sketch:type="MSShapeGroup"></path>
            <path d="M58.539,10.608 C58.462,10.196 58.09,9.914 57.561,9.914 C56.979,9.914 56.612,10.217 56.612,10.619 C56.612,11.065 57.042,11.198 57.374,11.291 C57.785,11.406 58.288,11.483 58.288,11.859 C58.288,12.129 58.026,12.331 57.594,12.331 C57.122,12.331 56.853,12.066 56.818,11.766 L56.539,11.845 C56.622,12.28 56.961,12.61 57.583,12.61 C58.222,12.61 58.573,12.287 58.573,11.852 C58.573,11.35 58.094,11.187 57.686,11.079 C57.3,10.977 56.898,10.888 56.898,10.605 C56.898,10.347 57.166,10.184 57.55,10.184 C57.909,10.184 58.213,10.372 58.277,10.687 L58.539,10.608" id="Fill-6" fill="#0B0B0A" sketch:type="MSShapeGroup"></path>
            <path d="M63.542,10.608 C63.465,10.196 63.094,9.914 62.566,9.914 C61.986,9.914 61.616,10.217 61.616,10.619 C61.616,11.065 62.047,11.198 62.378,11.291 C62.79,11.406 63.293,11.483 63.293,11.859 C63.293,12.129 63.031,12.331 62.6,12.331 C62.127,12.331 61.857,12.066 61.822,11.766 L61.545,11.845 C61.626,12.28 61.965,12.61 62.586,12.61 C63.226,12.61 63.58,12.287 63.58,11.852 C63.58,11.35 63.098,11.187 62.692,11.079 C62.307,10.977 61.902,10.888 61.902,10.605 C61.902,10.347 62.172,10.184 62.554,10.184 C62.916,10.184 63.218,10.372 63.28,10.687 L63.542,10.608" id="Fill-7" fill="#0B0B0A" sketch:type="MSShapeGroup"></path>
            <path d="M67.06,12.33 L67.06,11.396 L68.236,11.396 L68.236,11.121 L67.06,11.121 L67.06,10.19 L68.525,10.19 L68.525,9.907 L66.773,9.907 L66.773,12.61 L68.549,12.61 L68.549,12.33 L67.06,12.33" id="Fill-8" fill="#0B0B0A" sketch:type="MSShapeGroup"></path>
            <path d="M72.191,12.33 L72.191,11.396 L73.367,11.396 L73.367,11.121 L72.191,11.121 L72.191,10.19 L73.656,10.19 L73.656,9.907 L71.903,9.907 L71.903,12.61 L73.68,12.61 L73.68,12.33 L72.191,12.33" id="Fill-9" fill="#0B0B0A" sketch:type="MSShapeGroup"></path>
            <path d="M29.999,19.389 L29.999,20.072 C29.999,20.962 31.042,21.367 32.105,21.367 C33.423,21.367 34.398,20.79 34.398,19.564 C34.398,18.359 33.492,17.988 32.488,17.631 C31.726,17.353 31.044,17.123 31.044,16.432 C31.044,15.835 31.572,15.539 32.239,15.539 C32.759,15.539 33.354,15.741 33.354,16.121 L33.354,16.572 L34.097,16.572 L34.097,15.807 C34.097,15.139 33.211,14.803 32.213,14.803 C31.091,14.803 30.156,15.281 30.156,16.479 C30.156,17.631 30.984,17.998 31.855,18.322 C32.692,18.634 33.51,18.883 33.51,19.638 C33.51,20.283 32.93,20.632 32.131,20.632 C31.402,20.632 30.743,20.348 30.743,19.869 L30.743,19.389 L29.999,19.389" id="Fill-10" fill="#0B0B0A" sketch:type="MSShapeGroup"></path>
            <path d="M35.34,19.634 C35.34,21.063 36.518,21.205 37.105,21.205 C37.296,21.205 37.425,21.191 37.425,21.191 L37.425,20.611 C37.425,20.611 37.343,20.62 37.214,20.62 C36.866,20.62 36.227,20.502 36.227,19.55 L36.227,17.363 L37.334,17.363 L37.334,16.779 L36.227,16.779 L36.227,15.522 L35.359,15.522 L35.359,16.779 L34.561,16.779 L34.561,17.363 L35.34,17.363 L35.34,19.634" id="Fill-11" fill="#0B0B0A" sketch:type="MSShapeGroup"></path>
            <path d="M38.711,19.936 C38.711,18.994 40.207,18.976 40.641,18.976 L40.875,18.976 L40.875,19.178 C40.875,19.918 40.377,20.771 39.566,20.771 C39.021,20.771 38.711,20.374 38.711,19.936 L38.711,19.936 Z M37.822,19.992 C37.822,20.974 38.582,21.356 39.37,21.356 C40.527,21.356 40.941,20.46 40.941,20.46 L40.959,20.46 C40.959,20.429 40.921,20.553 40.921,20.723 L40.921,20.777 C40.921,21.032 41.085,21.205 41.497,21.205 L42.423,21.205 L42.423,20.62 L41.954,20.62 C41.826,20.62 41.754,20.553 41.754,20.411 L41.754,18.294 C41.754,17.119 41.132,16.628 39.924,16.628 C38.813,16.628 38.14,17.068 38.14,17.068 L38.493,17.673 C38.493,17.673 39.097,17.212 39.849,17.212 C40.433,17.212 40.865,17.475 40.865,18.227 L40.865,18.405 L40.564,18.405 C39.773,18.405 37.822,18.506 37.822,19.992 L37.822,19.992 Z" id="Fill-12" fill="#0B0B0A" sketch:type="MSShapeGroup"></path>
            <path d="M42.876,19.634 C42.876,21.063 44.054,21.205 44.64,21.205 C44.832,21.205 44.96,21.191 44.96,21.191 L44.96,20.611 C44.96,20.611 44.876,20.62 44.75,20.62 C44.402,20.62 43.762,20.502 43.762,19.55 L43.762,17.363 L44.869,17.363 L44.869,16.779 L43.762,16.779 L43.762,15.522 L42.892,15.522 L42.892,16.779 L42.097,16.779 L42.097,17.363 L42.876,17.363 L42.876,19.634" id="Fill-13" fill="#0B0B0A" sketch:type="MSShapeGroup"></path>
            <path d="M46.087,18.562 C46.22,17.712 46.798,17.212 47.506,17.212 C48.12,17.212 48.64,17.673 48.667,18.562 L46.087,18.562 L46.087,18.562 Z M45.161,19.04 C45.161,20.474 46.143,21.356 47.67,21.356 C48.818,21.356 49.493,20.869 49.493,20.869 L49.138,20.225 C49.138,20.225 48.572,20.771 47.728,20.771 C46.863,20.771 46.105,20.195 46.048,19.122 L49.528,19.122 C49.528,19.122 49.553,18.906 49.553,18.787 C49.553,17.502 48.889,16.628 47.525,16.628 C46.143,16.628 45.161,17.481 45.161,19.04 L45.161,19.04 Z" id="Fill-14" fill="#0B0B0A" sketch:type="MSShapeGroup"></path>
            <path d="M53.169,18.247 L53.169,15.555 L54.399,15.555 C54.716,15.555 54.997,15.604 55.2,15.72 C55.575,15.925 55.79,16.333 55.79,16.888 C55.79,17.48 55.547,17.917 55.126,18.112 C54.922,18.201 54.688,18.247 54.389,18.247 L53.169,18.247 L53.169,18.247 Z M51.477,21.205 L53.999,21.205 L53.999,20.62 L53.169,20.62 L53.169,18.831 L54.501,18.831 C54.866,18.831 55.182,18.81 55.49,18.725 C56.219,18.527 56.675,17.85 56.675,16.888 C56.675,15.974 56.262,15.328 55.612,15.106 C55.285,14.992 54.885,14.971 54.483,14.971 L51.477,14.971 L51.477,15.555 L52.281,15.555 L52.281,20.62 L51.477,20.62 L51.477,21.205 L51.477,21.205 Z" id="Fill-15" fill="#0B0B0A" sketch:type="MSShapeGroup"></path>
            <path d="M57.677,19.936 C57.677,18.994 59.174,18.976 59.608,18.976 L59.842,18.976 L59.842,19.178 C59.842,19.918 59.345,20.771 58.533,20.771 C57.989,20.771 57.677,20.374 57.677,19.936 L57.677,19.936 Z M56.79,19.992 C56.79,20.974 57.549,21.356 58.337,21.356 C59.494,21.356 59.908,20.46 59.908,20.46 L59.926,20.46 C59.926,20.429 59.889,20.553 59.889,20.723 L59.889,20.777 C59.889,21.032 60.053,21.205 60.467,21.205 L61.39,21.205 L61.39,20.62 L60.923,20.62 C60.793,20.62 60.721,20.553 60.721,20.411 L60.721,18.294 C60.721,17.119 60.099,16.628 58.891,16.628 C57.781,16.628 57.107,17.068 57.107,17.068 L57.461,17.673 C57.461,17.673 58.063,17.212 58.815,17.212 C59.4,17.212 59.833,17.475 59.833,18.227 L59.833,18.405 L59.531,18.405 C58.741,18.405 56.79,18.506 56.79,19.992 L56.79,19.992 Z" id="Fill-16" fill="#0B0B0A" sketch:type="MSShapeGroup"></path>
            <path d="M61.691,21.205 L63.961,21.205 L63.961,20.62 L63.274,20.62 L63.274,19.394 C63.274,18.557 63.694,17.592 64.683,17.592 C64.83,17.592 64.94,17.617 64.94,17.617 L64.94,16.751 C64.94,16.751 64.83,16.732 64.711,16.732 C63.995,16.732 63.459,17.256 63.248,17.92 L63.229,17.92 C63.229,17.83 63.248,17.694 63.248,17.509 L63.248,17.24 C63.248,16.919 63.054,16.779 62.652,16.779 L61.609,16.779 L61.609,17.363 L62.187,17.363 C62.313,17.363 62.387,17.428 62.387,17.565 L62.387,20.62 L61.691,20.62 L61.691,21.205" id="Fill-17" fill="#0B0B0A" sketch:type="MSShapeGroup"></path>
            <path d="M64.95,21.205 L67.149,21.205 L67.149,20.62 L66.558,20.62 L66.558,19.134 L66.906,19.134 C67.097,19.134 67.219,19.152 67.315,19.315 L68.219,20.839 C68.42,21.141 68.559,21.205 68.979,21.205 L69.673,21.205 L69.673,20.62 L69.381,20.62 C69.144,20.62 69.07,20.583 68.979,20.439 L68.191,19.101 C68.009,18.834 67.864,18.778 67.854,18.778 L67.854,18.761 L68.998,17.363 L69.61,17.363 L69.61,16.779 L67.506,16.779 L67.506,17.363 L68.11,17.363 L67.202,18.55 L66.558,18.55 L66.558,14.971 L64.903,14.971 L64.903,15.555 L65.682,15.555 L65.682,20.62 L64.95,20.62 L64.95,21.205" id="Fill-18" fill="#0B0B0A" sketch:type="MSShapeGroup"></path>
            <g id="Group-22">
                <mask id="mask-2" sketch:name="Clip 20" fill="white">
                    <use xlink:href="#path-1"></use>
                </mask>
                <g id="Clip-20"></g>
                <path d="M69.919,20.372 C69.919,21.05 70.86,21.356 71.732,21.356 C72.911,21.356 73.705,20.962 73.705,20.104 C73.705,19.205 72.901,18.892 72.13,18.643 C71.523,18.443 70.961,18.252 70.961,17.794 C70.961,17.403 71.381,17.212 71.861,17.212 C72.282,17.212 72.663,17.412 72.663,17.709 L72.663,18.024 L73.406,18.024 L73.406,17.442 C73.406,16.837 72.483,16.628 71.808,16.628 C70.97,16.628 70.075,16.928 70.075,17.805 C70.075,18.682 70.825,19.006 71.531,19.273 C72.265,19.513 72.819,19.664 72.819,20.15 C72.819,20.551 72.373,20.771 71.809,20.771 C71.256,20.771 70.662,20.581 70.662,20.169 L70.662,19.855 L69.919,19.855 L69.919,20.372" id="Fill-19" fill="#0B0B0A" sketch:type="MSShapeGroup" mask="url(#mask-2)"></path>
                <path d="M5.212,21.084 C5.257,20.988 5.157,20.825 5.06,20.78 C4.914,20.713 4.771,20.764 4.703,20.908 C4.657,21.004 4.684,21.075 4.661,21.122 C4.758,21.168 4.687,21.193 4.832,21.261 C4.881,21.282 5.121,21.276 5.212,21.084 L5.212,21.084 Z M10.897,25.22 C10.322,25.306 9.088,25.79 8.99,25.746 C8.844,25.678 8.517,25.119 8.316,24.792 C8.747,24.757 9.249,24.696 9.732,24.801 C10.021,24.817 10.387,25.044 10.701,25.131 L10.897,25.22 L10.897,25.22 Z M6.561,12.953 L0,16.715 L0,24.239 L6.561,28 L13.122,24.239 L13.122,23.334 C11.412,24.997 8.198,24.679 6.441,23.871 L5.567,23.469 C5.803,23.343 6.23,23.19 6.49,23.016 C6.749,22.844 6.982,22.6 7.167,22.335 C8.884,22.963 10.858,23.395 13.122,22.722 L13.122,22.372 C10.905,23.147 8.8,22.625 7.158,21.98 L7.015,22.03 C6.276,23.093 5.491,23.376 4.616,22.972 L2.69,21.91 C3.192,21.849 3.942,22.019 4.571,22.191 C4.389,21.699 3.874,21.286 3.503,20.94 C4.473,20.393 5.62,20.22 6.557,20.242 C6.989,20.206 7.52,20.334 7.977,20.369 C8.146,20.388 8.447,20 8.542,19.927 C8.774,19.684 9.079,19.415 9.384,19.146 C9.731,19.54 9.906,19.796 10.295,19.974 L12.357,20.749 C12.12,20.874 11.812,21.024 11.527,21.127 L11.459,21.271 L11.799,21.428 C12.091,21.561 12.609,21.532 13.122,21.439 L13.122,16.715 L9.97,14.907 C9.905,14.913 9.843,14.921 9.795,14.931 C9.575,14.964 9.333,15.038 9.112,15.133 C9.028,15.165 8.923,15.218 8.849,15.249 C8.776,15.282 8.682,15.324 8.608,15.377 C8.534,15.409 8.46,15.451 8.408,15.494 C8.187,15.621 7.977,15.791 7.757,15.95 C7.694,16.004 7.61,16.056 7.546,16.13 C7.535,16.141 7.557,16.184 7.557,16.205 C7.557,16.364 7.409,16.502 7.273,16.502 C7.252,16.502 7.178,16.481 7.158,16.481 C7.073,16.481 5.97,17.605 5.55,17.988 C5.455,18.072 5.287,18.116 5.193,18.116 C5.004,18.116 4.7,17.977 4.647,17.69 C4.647,17.669 4.625,17.638 4.625,17.616 L4.625,17.383 C4.752,16.895 5.309,16.863 5.666,16.736 L5.098,17.446 C5.088,17.373 5.077,17.288 5.056,17.213 C4.93,17.245 4.857,17.415 4.857,17.521 C4.857,17.712 5.014,17.861 5.193,17.861 C5.309,17.861 5.361,17.828 5.507,17.69 C5.992,17.213 6.979,16.311 6.979,16.279 C6.979,16.258 6.958,16.226 6.958,16.205 C6.958,16.035 7.116,15.907 7.241,15.907 C7.273,15.907 7.346,15.94 7.367,15.94 C7.399,15.94 7.62,15.748 7.746,15.653 C8.019,15.441 8.324,15.239 8.619,15.101 C8.955,14.926 9.308,14.797 9.654,14.726 L6.561,12.953 L6.561,12.953 Z" id="Fill-21" fill="#063559" sketch:type="MSShapeGroup" mask="url(#mask-2)"></path>
            </g>
            <path d="M24.558,21.323 C24.558,22.612 23.659,23.503 22.061,24 C22.16,23.603 23.26,22.711 23.16,22.116 L23.16,21.72 C23.16,21.125 23.06,20.332 22.66,20.134 C22.56,20.332 22.361,21.521 21.761,21.521 C21.362,21.521 21.262,20.926 21.262,20.828 C21.262,19.935 22.261,18.746 22.16,18.449 C20.761,19.44 19.963,21.125 19.963,22.315 C19.963,22.909 20.062,23.306 20.761,23.901 C19.263,23.603 18.464,22.909 18.464,21.819 C18.464,19.341 21.961,18.25 21.362,15.871 C22.96,17.259 24.558,19.737 24.558,21.323 L24.558,21.323 Z M24.958,24.396 C24.958,24.792 24.358,24.892 24.259,24.892 C24.059,24.892 22.96,24.595 22.361,24.396 C22.86,24.198 23.959,23.901 24.16,23.901 C24.659,23.901 24.958,24 24.958,24.396 L24.958,24.396 Z M20.381,12.953 L13.82,16.715 L13.82,24.239 L17.216,26.186 C17.332,25.587 17.87,25.549 18.703,25.389 L21.28,26.362 C21.042,26.376 19.916,26.957 19.1,27.265 L20.381,28 L22.704,26.668 C22.192,26.416 21.746,26.181 21.562,26.181 L21.553,26.181 L18.976,25.206 L19.064,25.189 C18.864,24.99 18.164,24.693 18.164,24.396 C18.164,23.801 18.663,23.901 18.964,23.901 C19.155,23.901 22.764,24.725 24.907,25.405 L26.942,24.239 L26.942,16.715 L20.381,12.953 L20.381,12.953 Z" id="Fill-23" fill="#D95929" sketch:type="MSShapeGroup"></path>
            <path d="M14.344,3.22 C14.608,3.351 15.076,3.586 15.258,3.832 C15.319,3.914 15.459,4.046 15.469,4.085 C15.474,4.111 15.372,4.203 15.316,4.256 C15.077,4.476 14.845,4.776 14.586,4.904 C14.254,4.543 13.835,4.405 13.522,4.478 C12.867,4.628 12.889,5.13 12.758,5.16 C12.719,5.169 12.585,5.131 12.514,5.12 C12.212,5.067 11.897,5.016 11.58,4.952 C11.563,4.941 11.548,4.932 11.538,4.893 C11.498,4.724 11.833,3.975 11.956,3.852 C12.149,3.615 12.358,3.39 12.592,3.212 C12.787,3.044 12.796,3.084 12.98,3.041 C13.372,2.95 13.881,3.012 14.344,3.22 L14.344,3.22 Z M14.559,5.321 L14.571,5.373 C14.561,5.389 14.561,5.389 14.535,5.395 C14.496,5.404 14.212,5.25 14.046,5.192 C13.972,5.169 13.891,5.174 13.819,5.163 L13.734,4.799 C13.747,4.795 13.757,4.78 13.797,4.771 C14.032,4.717 14.504,5.265 14.559,5.321 L14.559,5.321 Z M13.41,4.941 C13.453,5.014 13.52,5.122 13.53,5.161 C13.563,5.304 13.478,5.296 13.332,5.494 C13.288,5.545 13.153,5.904 13.087,5.92 C13.048,5.929 13.058,5.913 13.045,5.916 L13.014,5.786 C13.036,5.699 13.03,5.029 13.344,4.957 L13.41,4.941 L13.41,4.941 Z M11.69,5.365 C11.887,5.387 12.092,5.437 12.291,5.459 C12.307,5.47 12.7,5.502 12.715,5.567 C12.724,5.607 12.676,5.699 12.676,5.754 C12.659,5.854 12.689,5.984 12.69,6.108 C12.699,6.146 12.656,6.198 12.616,6.207 C12.59,6.213 12.363,6.183 12.239,6.184 C12.142,6.178 12.021,6.193 11.926,6.2 C11.874,6.213 11.796,6.176 11.728,6.177 C11.66,6.18 11.584,6.211 11.49,6.219 L11.456,6.076 C11.47,5.84 11.439,5.587 11.504,5.394 C11.556,5.382 11.618,5.353 11.69,5.365 L11.69,5.365 Z M15.747,4.514 C15.747,4.514 16.13,4.974 16.161,5.103 C16.168,5.129 16.173,5.156 16.15,5.174 C16.071,5.248 15.972,5.298 15.903,5.355 C15.771,5.44 15.623,5.57 15.487,5.642 C15.439,5.667 15.351,5.824 15.309,5.82 C15.171,5.701 15.107,5.483 14.966,5.351 C14.926,5.305 14.908,5.282 14.901,5.256 L14.89,5.204 C15.015,5.093 15.63,4.541 15.709,4.522 L15.747,4.514 L15.747,4.514 Z M14.088,5.662 C14.304,5.709 14.609,5.83 14.805,5.785 C15.054,6.029 15.091,6.062 15.148,6.309 C15.163,6.375 15.231,6.372 15.243,6.424 C15.252,6.463 15.238,6.521 15.199,6.53 C15.174,6.536 14.528,6.369 14.187,6.269 C14.141,6.13 14.048,5.85 14.043,5.823 L14.009,5.681 L14.088,5.662 L14.088,5.662 Z M13.692,5.795 L13.862,6.29 C13.871,6.329 13.867,6.371 13.85,6.415 C13.649,6.736 13.44,7.017 13.178,7.31 L13.032,6.686 C13.042,6.67 13.036,6.644 13.033,6.631 L13.613,5.813 L13.692,5.795 L13.692,5.795 Z M11.925,6.667 C12.162,6.68 12.436,6.673 12.693,6.654 C12.726,6.852 12.731,6.934 12.792,7.194 C12.815,7.353 12.524,7.406 12.42,7.43 C12.185,7.484 12.236,7.471 11.905,7.466 C11.82,7.457 11.732,7.492 11.638,7.5 C11.612,7.506 11.579,7.486 11.548,7.466 L11.484,7.194 C11.499,7.025 11.397,6.706 11.593,6.661 C11.632,6.652 11.814,6.665 11.925,6.667 L11.925,6.667 Z M16.52,5.637 C16.627,5.804 16.784,6.179 16.793,6.218 C16.829,6.375 16.526,6.43 16.477,6.456 C16.29,6.54 16.071,6.603 15.899,6.698 C15.851,6.723 15.843,6.807 15.804,6.816 C15.777,6.822 15.709,6.824 15.702,6.798 C15.608,6.628 15.513,6.28 15.507,6.254 C15.473,6.111 15.95,5.851 16.025,5.82 C16.062,5.798 16.133,5.809 16.182,5.784 C16.205,5.765 16.196,5.725 16.232,5.704 C16.265,5.669 16.37,5.645 16.41,5.635 C16.448,5.627 16.498,5.601 16.52,5.637 L16.52,5.637 Z M15.427,6.971 C15.471,7.043 15.492,7.134 15.526,7.222 C15.578,7.443 15.6,7.479 15.609,7.518 C15.615,7.544 15.639,7.648 15.561,7.666 C15.521,7.675 14.812,7.468 14.486,7.256 C14.371,7.172 14.357,6.875 14.351,6.849 C14.333,6.771 14.301,6.751 14.405,6.726 C14.444,6.717 15.092,6.898 15.427,6.971 L15.427,6.971 Z M14.05,6.918 C14.099,7.071 14.189,7.338 14.199,7.377 C14.205,7.402 14.22,7.468 14.202,7.513 C14.123,7.64 14.003,7.778 13.906,7.896 C13.777,8.049 13.656,8.242 13.515,8.342 C13.499,8.333 13.466,8.312 13.461,8.286 C13.407,8.175 13.326,7.947 13.321,7.921 L13.305,7.856 C13.526,7.559 13.752,7.233 13.971,6.936 L14.05,6.918 L14.05,6.918 Z M16.966,6.781 C17.055,6.926 17.147,7.26 17.156,7.299 C17.178,7.39 17.094,7.506 16.986,7.516 L16.479,7.647 C16.428,7.658 16.362,7.674 16.306,7.673 C16.293,7.675 16.277,7.666 16.251,7.672 C16.212,7.681 16.156,7.735 16.129,7.741 C16.091,7.75 15.974,7.722 15.974,7.722 L15.852,7.202 C16.024,7.052 16.29,6.951 16.492,6.876 C16.519,6.87 16.587,6.869 16.636,6.844 C16.735,6.793 16.768,6.758 16.82,6.747 C16.872,6.734 16.919,6.696 16.966,6.781 L16.966,6.781 Z M12.904,7.729 C12.94,7.886 12.98,8.054 13.042,8.205 C13.054,8.256 13.125,8.322 13.133,8.361 C13.14,8.387 13.14,8.387 13.126,8.39 C13.09,8.412 12.47,8.706 12.3,8.745 L11.908,8.835 L11.705,7.964 L12.904,7.729 L12.904,7.729 Z M15.678,8.05 C15.789,8.107 15.769,8.139 15.79,8.23 C15.81,8.321 15.821,8.606 15.82,8.661 C15.756,8.676 15.662,8.684 15.587,8.661 C15.545,8.656 14.816,8.427 14.801,8.361 L14.685,7.868 C14.695,7.851 14.689,7.826 14.728,7.816 C14.755,7.81 15.504,7.953 15.678,8.05 L15.678,8.05 Z M14.377,7.966 C14.454,8.058 14.497,8.24 14.525,8.357 C14.53,8.382 14.545,8.448 14.528,8.492 C14.364,8.736 14.187,9.036 13.993,9.205 C13.976,9.195 13.957,9.172 13.941,9.162 C13.888,9.05 13.78,8.829 13.774,8.803 L13.756,8.725 C13.793,8.648 14.243,7.983 14.335,7.962 C14.362,7.955 14.375,7.953 14.377,7.966 L14.377,7.966 Z M13.44,8.907 C13.536,9.022 13.625,9.166 13.711,9.297 L12.611,10.016 C12.563,9.986 12.521,9.926 12.496,9.877 C12.386,9.698 12.176,9.335 12.17,9.308 L12.149,9.218 L13.27,8.768 C13.356,8.721 13.402,8.862 13.44,8.907 L13.44,8.907 Z M16.853,7.945 C16.892,7.935 16.966,7.96 17.005,7.95 C17.032,7.944 17.113,7.884 17.153,7.875 C17.231,7.857 17.303,7.868 17.327,7.972 C17.333,7.998 17.339,8.257 17.343,8.394 C17.345,8.461 17.327,8.562 17.351,8.665 C17.312,8.674 17.263,8.699 17.223,8.708 C17.198,8.714 16.609,8.727 16.569,8.736 L16.294,8.798 C16.139,8.779 16.115,8.621 16.096,8.543 C16.091,8.517 16.07,8.371 16.052,8.293 C16.043,8.253 16.044,8.198 16.048,8.156 C16.215,8.105 16.538,8.016 16.578,8.008 C16.604,8.001 16.758,7.953 16.853,7.945 L16.853,7.945 Z M15.78,9.191 C15.812,9.211 15.851,9.257 15.859,9.296 C15.866,9.322 15.874,9.594 15.868,9.746 C15.842,9.752 15.79,9.764 15.757,9.744 C15.622,9.693 15.118,9.48 15.106,9.428 L14.999,8.973 C15.005,8.945 15.013,8.915 15.052,8.906 C15.078,8.9 15.534,9.083 15.78,9.191 L15.78,9.191 Z M14.714,9.052 L14.853,9.472 C14.857,9.485 14.863,9.512 14.856,9.541 C14.775,9.668 14.668,9.803 14.565,9.95 C14.451,9.812 14.243,9.572 14.234,9.533 C14.216,9.455 14.566,9.127 14.635,9.071 L14.714,9.052 L14.714,9.052 Z M14.373,10.186 L13.416,11.105 L12.904,10.441 L13.917,9.647 C14.079,9.815 14.233,9.999 14.373,10.186 L14.373,10.186 Z M16.176,9.237 C16.508,9.243 16.799,9.19 17.146,9.261 C17.204,9.275 17.298,9.267 17.37,9.277 C17.402,9.297 17.412,9.336 17.417,9.362 C17.427,9.401 17.464,9.858 17.454,10.107 C17.46,10.188 17.413,10.226 17.36,10.239 C17.322,10.248 17.204,10.219 17.143,10.192 C16.823,10.115 16.482,10.016 16.174,9.936 C16.161,9.938 16.142,9.916 16.136,9.89 C16.127,9.851 16.139,9.547 16.141,9.382 C16.132,9.343 16.12,9.291 16.124,9.249 L16.176,9.237 L16.176,9.237 Z M13.793,12.538 C13.904,12.54 13.998,12.532 14.092,12.525 C14.149,12.525 14.233,12.478 14.315,12.473 C14.448,12.456 14.589,12.465 14.721,12.503 C14.763,12.507 14.766,12.574 14.772,12.601 L14.847,13.214 L13.667,13.416 L13.643,13.313 C13.664,13.225 13.683,13.07 13.668,13.005 C13.66,12.856 13.758,12.683 13.714,12.556 L13.793,12.538 L13.793,12.538 Z M17.591,12.226 C17.63,12.217 17.635,12.298 17.645,12.337 C17.65,12.363 17.673,12.577 17.687,12.698 C17.692,12.778 17.742,12.931 17.698,13.037 C17.32,13.069 16.931,13.118 16.554,13.095 C16.486,13.096 16.49,12.999 16.481,12.961 C16.475,12.935 16.464,12.828 16.449,12.763 C16.431,12.631 16.401,12.5 16.41,12.361 C16.798,12.313 17.193,12.236 17.591,12.226 L17.591,12.226 Z M15.436,12.968 C15.466,12.975 15.477,13.028 15.486,13.066 C15.493,13.092 15.508,13.28 15.523,13.4 L15.458,13.415 C15.196,13.353 15.111,13.29 15.07,13.108 C15.057,13.056 14.992,12.838 15.149,12.802 C15.175,12.796 15.353,12.906 15.436,12.968 L15.436,12.968 Z M16.137,12.725 C16.156,12.748 16.159,12.761 16.169,12.8 C16.174,12.826 16.191,13.014 16.2,13.053 C16.206,13.079 16.212,13.105 16.245,13.126 C16.169,13.211 16.019,13.341 15.98,13.35 C15.954,13.356 15.912,13.352 15.88,13.332 L15.794,12.968 C15.844,12.888 15.912,12.886 15.972,12.845 C16.008,12.822 16.039,12.776 16.072,12.739 L16.137,12.725 L16.137,12.725 Z M14.178,13.655 C14.38,13.636 14.595,13.613 14.813,13.605 C14.881,13.603 14.912,13.733 14.918,13.759 C14.937,13.837 14.975,14.061 14.818,14.097 L13.73,14.334 L13.691,14.165 C13.643,13.723 13.655,13.775 13.955,13.706 C13.982,13.7 14.096,13.66 14.178,13.655 L14.178,13.655 Z M15.519,13.853 C15.551,13.873 15.566,13.938 15.575,13.977 C15.587,14.029 15.609,14.12 15.544,14.135 C15.478,14.151 15.232,14.042 15.232,14.042 C15.197,14.01 15.183,13.944 15.176,13.919 C15.158,13.84 15.147,13.734 15.251,13.71 C15.342,13.689 15.4,13.757 15.519,13.853 L15.519,13.853 Z M16.257,13.766 C16.265,13.805 16.277,13.857 16.261,13.902 C16.24,13.934 16.065,14.07 16.014,14.083 C15.935,14.1 15.929,14.019 15.924,13.993 C15.917,13.967 15.912,13.886 15.912,13.832 C15.996,13.771 16.124,13.673 16.164,13.664 C16.242,13.646 16.25,13.741 16.257,13.766 L16.257,13.766 Z M14.93,14.4 C14.956,14.394 14.979,14.43 14.985,14.456 C15.013,14.517 15.053,14.632 15.059,14.658 C15.069,14.697 15.077,14.736 15.051,14.742 C14.697,14.933 14.01,15.296 13.983,15.302 C13.944,15.312 13.952,15.282 13.936,15.272 L13.814,14.752 C13.821,14.724 13.825,14.682 13.845,14.649 L14.93,14.4 L14.93,14.4 Z M13.436,0.881 L6.874,4.643 L6.874,12.166 L13.436,15.928 L15.408,14.797 C15.343,14.706 15.296,14.61 15.294,14.604 C15.289,14.577 15.254,14.489 15.346,14.468 C15.385,14.46 15.534,14.508 15.578,14.579 C15.597,14.597 15.612,14.635 15.625,14.672 L16.942,13.917 C16.818,13.922 16.691,13.924 16.586,13.882 L16.51,13.557 C16.529,13.457 16.506,13.421 16.572,13.406 C16.611,13.397 16.791,13.397 16.887,13.402 C17.174,13.391 17.479,13.403 17.777,13.376 C17.79,13.384 17.804,13.392 17.813,13.418 L19.997,12.166 L19.997,4.643 L13.436,0.881 L13.436,0.881 Z" id="Fill-24" fill="#71A938" sketch:type="MSShapeGroup"></path>
        </g>
    </g>
</svg>